<svg xmlns="http://www.w3.org/2000/svg" viewBox="0 0.07000000774860382 139.4499969482422 40.08000183105469" data-asc="0.79" width="139.4499969482422" height="40.08000183105469"><defs/><g fill="#ffffff"><g transform="translate(0, 0)"><path d="M11.73 40.15Q9.68 40.15 7.60 39.67Q5.53 39.20 3.80 38.25Q2.07 37.30 1.04 35.86Q0 34.42 0 32.48Q0 31.95 0.08 31.48Q0.15 31 0.23 30.73L10.20 30.73Q10.18 30.88 10.14 31.05Q10.10 31.23 10.10 31.38Q10.10 32.20 10.90 32.54Q11.70 32.88 13.08 32.88Q13.78 32.88 14.58 32.70Q15.38 32.52 15.95 32.11Q16.53 31.70 16.53 31Q16.53 30.40 15.34 30.07Q14.15 29.75 11.75 29.35Q9.65 29 7.51 28.26Q5.38 27.52 3.95 26.05Q2.52 24.57 2.52 22.05Q2.52 19.57 3.71 17.75Q4.90 15.92 6.91 14.74Q8.93 13.55 11.48 12.97Q14.03 12.40 16.75 12.40Q19.63 12.40 22.21 13.34Q24.80 14.27 26.44 16Q28.08 17.72 28.08 20.13Q28.08 20.57 28.00 21.06Q27.93 21.55 27.88 21.77L18 21.77Q18.05 21.68 18.08 21.51Q18.10 21.35 18.10 21.18Q18.10 20.60 17.73 20.26Q17.35 19.92 16.79 19.76Q16.23 19.60 15.65 19.60Q15.13 19.60 14.36 19.72Q13.60 19.85 13.03 20.20Q12.45 20.55 12.45 21.20Q12.45 21.82 13.50 22.21Q14.55 22.60 16.45 22.88Q17.73 23.05 19.41 23.44Q21.10 23.82 22.69 24.59Q24.28 25.35 25.31 26.63Q26.35 27.90 26.35 29.88Q26.35 32.50 25.11 34.42Q23.88 36.35 21.79 37.63Q19.70 38.90 17.09 39.52Q14.48 40.15 11.73 40.15ZM46.83 0.42L38.53 39.50L28.50 39.50L36.80 0.42L46.83 0.42ZM49.95 28.98L51.18 22.97L66.83 22.97L65.85 24.27Q65.97 23.77 66.04 23.38Q66.10 22.97 66.10 22.70Q66.10 21.93 65.70 21.19Q65.30 20.45 64.39 19.97Q63.48 19.50 61.90 19.50Q60.08 19.50 58.70 20.20Q57.33 20.90 56.43 22.16Q55.53 23.43 55.08 25.09Q54.63 26.75 54.63 28.70Q54.63 30.02 55.04 30.98Q55.45 31.93 56.44 32.44Q57.43 32.95 59.18 32.95Q60.38 32.95 61.28 32.77Q62.17 32.60 62.79 32.33Q63.40 32.05 63.76 31.73Q64.13 31.40 64.22 31.10L74.18 31.10Q73.63 32.85 72.35 34.48Q71.08 36.10 69.08 37.39Q67.08 38.67 64.34 39.41Q61.60 40.15 58.13 40.15Q53.95 40.15 51.01 38.66Q48.08 37.17 46.52 34.56Q44.98 31.95 44.98 28.57Q44.98 25 46.33 22.04Q47.68 19.07 50.08 16.91Q52.48 14.75 55.66 13.57Q58.85 12.40 62.53 12.40Q66.65 12.40 69.60 13.76Q72.55 15.13 74.14 17.65Q75.72 20.17 75.72 23.70Q75.72 24.90 75.50 26.39Q75.28 27.88 74.88 28.98L49.95 28.98ZM88.13 40.15Q85.08 40.15 82.71 38.84Q80.35 37.52 79.03 34.95Q77.70 32.38 77.70 28.65Q77.70 25.27 78.80 22.32Q79.90 19.38 81.91 17.14Q83.93 14.90 86.68 13.65Q89.43 12.40 92.70 12.40Q95.38 12.40 97.60 13.65Q99.83 14.90 101.16 17.15Q102.50 19.40 102.50 22.38Q102.50 23.07 102.39 24.02Q102.28 24.98 102.08 25.70L98.50 25.90Q98.58 25.55 98.63 25.19Q98.68 24.82 98.68 24.50Q98.68 23.22 98.06 22.39Q97.45 21.55 96.49 21.14Q95.53 20.72 94.48 20.72Q93.23 20.72 92.13 21.19Q91.03 21.65 90.19 22.50Q89.35 23.35 88.88 24.54Q88.40 25.73 88.40 27.17Q88.40 28.67 88.90 29.70Q89.40 30.73 90.30 31.26Q91.20 31.80 92.35 31.80Q93.68 31.80 94.91 31.24Q96.15 30.67 97.06 29.56Q97.98 28.45 98.33 26.80L101.75 27.27Q100.93 31.20 98.86 34.10Q96.80 37 94.00 38.58Q91.20 40.15 88.13 40.15M105.68 39.50L95.60 39.50L101.23 12.95L111.30 12.95L105.68 39.50ZM113.65 39.50L117.70 20.45L112.35 20.45L113.95 12.95L119.30 12.95L119.48 12.17Q120.38 8.20 122.21 5.79Q124.05 3.38 126.36 2.14Q128.68 0.90 131.06 0.49Q133.45 0.07 135.45 0.07Q136.85 0.07 137.99 0.26Q139.13 0.45 139.45 0.57L137.78 8.20Q137.50 8.10 136.73 7.96Q135.95 7.82 135.03 7.82Q133.33 7.82 132.21 8.34Q131.10 8.85 130.46 9.84Q129.83 10.82 129.50 12.27L129.35 12.95L136.08 12.95L134.48 20.45L127.75 20.45L123.70 39.50L113.65 39.50Z"/></g></g></svg>